<?xml version="1.0" encoding="utf-8"?>
<!-- Generator: Adobe Illustrator 24.0.0, SVG Export Plug-In . SVG Version: 6.00 Build 0)  -->
<svg version="1.1" id="Слой_1" xmlns="http://www.w3.org/2000/svg" xmlns:xlink="http://www.w3.org/1999/xlink" x="0px" y="0px"
	 viewBox="0 0 174 217" style="enable-background:new 0 0 174 217;" xml:space="preserve">
<style type="text/css">
	.st0{fill-rule:evenodd;clip-rule:evenodd;fill:#CDCDCD;}
</style>
<path class="st0" d="M0.42-0.14h98.83c32.52,0,60.21,15.91,60.18,48.08c-0.03,26.86-9.77,37.31-29.78,49.12
	c1.71,1.41,13.18,4.82,17.03,6.72c6.17,3.03,9.79,6.1,13.85,10.22c11.35,11.53,13.47,22.06,13.47,40.14
	c0,41.95-40.63,63.04-79.76,63.04H0L0.42-0.14L0.42-0.14z M54.13,56.95l-0.01,28.22c25.46,0,49.38,3.35,49.38-24.21
	c0-25.52-27.06-21.31-49.4-21.31L54.13,56.95L54.13,56.95z M54.11,177.18c27.89,0,62.36,4.59,62.96-27.03
	c0.63-32.99-35.4-27.03-62.95-27.03L54.11,177.18L54.11,177.18z"/>
</svg>
